<mxfile host="app.diagrams.net" agent="Mozilla/5.0 (Windows NT 10.0; Win64; x64; rv:135.0) Gecko/20100101 Firefox/135.0" version="26.0.16">
  <diagram name="Page-1" id="ko30jIF6_6Rp6oUb-vA7">
    <mxGraphModel dx="1239" dy="250" grid="1" gridSize="10" guides="1" tooltips="1" connect="1" arrows="1" fold="1" page="1" pageScale="1" pageWidth="850" pageHeight="1100" math="0" shadow="0">
      <root>
        <mxCell id="0" />
        <mxCell id="1" parent="0" />
        <mxCell id="Xb6AXkKjqVTM_AZDYaId-1" value="NetworkManager" style="html=1;whiteSpace=wrap;" parent="1" vertex="1">
          <mxGeometry x="-352.5" y="270" width="205" height="30" as="geometry" />
        </mxCell>
        <mxCell id="Xb6AXkKjqVTM_AZDYaId-6" value="GameSessionManager" style="swimlane;fontStyle=1;align=center;verticalAlign=top;childLayout=stackLayout;horizontal=1;startSize=26;horizontalStack=0;resizeParent=1;resizeParentMax=0;resizeLast=0;collapsible=1;marginBottom=0;whiteSpace=wrap;html=1;" parent="1" vertex="1">
          <mxGeometry x="-660" y="820" width="350" height="150" as="geometry" />
        </mxCell>
        <mxCell id="Xb6AXkKjqVTM_AZDYaId-7" value="- sessions: Object" style="text;strokeColor=none;fillColor=none;align=left;verticalAlign=top;spacingLeft=4;spacingRight=4;overflow=hidden;rotatable=0;points=[[0,0.5],[1,0.5]];portConstraint=eastwest;whiteSpace=wrap;html=1;" parent="Xb6AXkKjqVTM_AZDYaId-6" vertex="1">
          <mxGeometry y="26" width="350" height="26" as="geometry" />
        </mxCell>
        <mxCell id="Xb6AXkKjqVTM_AZDYaId-8" value="" style="line;strokeWidth=1;fillColor=none;align=left;verticalAlign=middle;spacingTop=-1;spacingLeft=3;spacingRight=3;rotatable=0;labelPosition=right;points=[];portConstraint=eastwest;strokeColor=inherit;" parent="Xb6AXkKjqVTM_AZDYaId-6" vertex="1">
          <mxGeometry y="52" width="350" height="8" as="geometry" />
        </mxCell>
        <mxCell id="Xb6AXkKjqVTM_AZDYaId-9" value="&lt;div&gt;+ createSession(sessionID: str, players: arrayList&amp;lt;String&amp;gt;): int&lt;/div&gt;&lt;div&gt;+ addPlayer(sessionID: str, playerID: str): int&lt;/div&gt;&lt;div&gt;+ updateSessionState(sessionID: str, state: SessionState): int&lt;/div&gt;&lt;div&gt;+ removePlayer(sessionID: str, playerID: str): int&lt;/div&gt;&lt;div&gt;+ getSessionState(sessionID: str): SessionState&lt;/div&gt;" style="text;strokeColor=none;fillColor=none;align=left;verticalAlign=top;spacingLeft=4;spacingRight=4;overflow=hidden;rotatable=0;points=[[0,0.5],[1,0.5]];portConstraint=eastwest;whiteSpace=wrap;html=1;" parent="Xb6AXkKjqVTM_AZDYaId-6" vertex="1">
          <mxGeometry y="60" width="350" height="90" as="geometry" />
        </mxCell>
        <mxCell id="Xb6AXkKjqVTM_AZDYaId-10" value="GameStateSynchronizer" style="swimlane;fontStyle=1;align=center;verticalAlign=top;childLayout=stackLayout;horizontal=1;startSize=26;horizontalStack=0;resizeParent=1;resizeParentMax=0;resizeLast=0;collapsible=1;marginBottom=0;whiteSpace=wrap;html=1;" parent="1" vertex="1">
          <mxGeometry x="-660" y="630" width="350" height="130" as="geometry" />
        </mxCell>
        <mxCell id="Xb6AXkKjqVTM_AZDYaId-11" value="- subscribers: Object" style="text;strokeColor=none;fillColor=none;align=left;verticalAlign=top;spacingLeft=4;spacingRight=4;overflow=hidden;rotatable=0;points=[[0,0.5],[1,0.5]];portConstraint=eastwest;whiteSpace=wrap;html=1;" parent="Xb6AXkKjqVTM_AZDYaId-10" vertex="1">
          <mxGeometry y="26" width="350" height="26" as="geometry" />
        </mxCell>
        <mxCell id="Xb6AXkKjqVTM_AZDYaId-12" value="" style="line;strokeWidth=1;fillColor=none;align=left;verticalAlign=middle;spacingTop=-1;spacingLeft=3;spacingRight=3;rotatable=0;labelPosition=right;points=[];portConstraint=eastwest;strokeColor=inherit;" parent="Xb6AXkKjqVTM_AZDYaId-10" vertex="1">
          <mxGeometry y="52" width="350" height="8" as="geometry" />
        </mxCell>
        <mxCell id="Xb6AXkKjqVTM_AZDYaId-13" value="&lt;div&gt;+ subscribe(sessionID: str, playerID: str): int&lt;/div&gt;&lt;div&gt;+ broadcastState(sessionID: str, state: SessionState): int&lt;/div&gt;&lt;div&gt;+ sendUpdate(playerID: str, state: SessionState): int&lt;/div&gt;&lt;div&gt;+ rollbackState(sessionID: str, previousState: SessionState): int&lt;/div&gt;" style="text;strokeColor=none;fillColor=none;align=left;verticalAlign=top;spacingLeft=4;spacingRight=4;overflow=hidden;rotatable=0;points=[[0,0.5],[1,0.5]];portConstraint=eastwest;whiteSpace=wrap;html=1;" parent="Xb6AXkKjqVTM_AZDYaId-10" vertex="1">
          <mxGeometry y="60" width="350" height="70" as="geometry" />
        </mxCell>
        <mxCell id="Xb6AXkKjqVTM_AZDYaId-14" value="AuthHandler" style="swimlane;fontStyle=1;align=center;verticalAlign=top;childLayout=stackLayout;horizontal=1;startSize=26;horizontalStack=0;resizeParent=1;resizeParentMax=0;resizeLast=0;collapsible=1;marginBottom=0;whiteSpace=wrap;html=1;" parent="1" vertex="1">
          <mxGeometry x="-10" y="170" width="350" height="100" as="geometry" />
        </mxCell>
        <mxCell id="Xb6AXkKjqVTM_AZDYaId-15" value="- db: DatabaseConnector" style="text;strokeColor=none;fillColor=none;align=left;verticalAlign=top;spacingLeft=4;spacingRight=4;overflow=hidden;rotatable=0;points=[[0,0.5],[1,0.5]];portConstraint=eastwest;whiteSpace=wrap;html=1;" parent="Xb6AXkKjqVTM_AZDYaId-14" vertex="1">
          <mxGeometry y="26" width="350" height="26" as="geometry" />
        </mxCell>
        <mxCell id="Xb6AXkKjqVTM_AZDYaId-16" value="" style="line;strokeWidth=1;fillColor=none;align=left;verticalAlign=middle;spacingTop=-1;spacingLeft=3;spacingRight=3;rotatable=0;labelPosition=right;points=[];portConstraint=eastwest;strokeColor=inherit;" parent="Xb6AXkKjqVTM_AZDYaId-14" vertex="1">
          <mxGeometry y="52" width="350" height="8" as="geometry" />
        </mxCell>
        <mxCell id="Xb6AXkKjqVTM_AZDYaId-17" value="&lt;div&gt;+ authenticatePlayer(): str&lt;/div&gt;&lt;div&gt;- checkDatabase():&lt;/div&gt;" style="text;strokeColor=none;fillColor=none;align=left;verticalAlign=top;spacingLeft=4;spacingRight=4;overflow=hidden;rotatable=0;points=[[0,0.5],[1,0.5]];portConstraint=eastwest;whiteSpace=wrap;html=1;" parent="Xb6AXkKjqVTM_AZDYaId-14" vertex="1">
          <mxGeometry y="60" width="350" height="40" as="geometry" />
        </mxCell>
        <mxCell id="Xb6AXkKjqVTM_AZDYaId-18" value="DatabaseConnector" style="swimlane;fontStyle=1;align=center;verticalAlign=top;childLayout=stackLayout;horizontal=1;startSize=26;horizontalStack=0;resizeParent=1;resizeParentMax=0;resizeLast=0;collapsible=1;marginBottom=0;whiteSpace=wrap;html=1;" parent="1" vertex="1">
          <mxGeometry x="-10" y="350" width="350" height="80" as="geometry" />
        </mxCell>
        <mxCell id="Xb6AXkKjqVTM_AZDYaId-21" value="&lt;div&gt;+ checkUser(username: str, password: str): Object&lt;/div&gt;&lt;div&gt;+ addUser(username: str, password: str): Object&lt;/div&gt;&lt;div&gt;+ recordMatch(gameID: str, gameData: Object): int&lt;/div&gt;" style="text;strokeColor=none;fillColor=none;align=left;verticalAlign=top;spacingLeft=4;spacingRight=4;overflow=hidden;rotatable=0;points=[[0,0.5],[1,0.5]];portConstraint=eastwest;whiteSpace=wrap;html=1;" parent="Xb6AXkKjqVTM_AZDYaId-18" vertex="1">
          <mxGeometry y="26" width="350" height="54" as="geometry" />
        </mxCell>
        <mxCell id="Xb6AXkKjqVTM_AZDYaId-22" value="SessionState could be an enum that represents various states the the session could be in." style="shape=note2;boundedLbl=1;whiteSpace=wrap;html=1;size=14;verticalAlign=top;align=center;" parent="1" vertex="1">
          <mxGeometry x="-230" y="910" width="150" height="90" as="geometry" />
        </mxCell>
        <mxCell id="Xb6AXkKjqVTM_AZDYaId-23" value="" style="endArrow=none;dashed=1;html=1;rounded=0;entryX=0;entryY=0.5;entryDx=0;entryDy=0;entryPerimeter=0;exitX=1;exitY=0.5;exitDx=0;exitDy=0;" parent="1" source="Xb6AXkKjqVTM_AZDYaId-9" target="Xb6AXkKjqVTM_AZDYaId-22" edge="1">
          <mxGeometry width="50" height="50" relative="1" as="geometry">
            <mxPoint x="-370" y="1030" as="sourcePoint" />
            <mxPoint x="-320" y="980" as="targetPoint" />
          </mxGeometry>
        </mxCell>
        <mxCell id="Xb6AXkKjqVTM_AZDYaId-24" value="Many methods return an int value to signify if the method had an error." style="shape=note2;boundedLbl=1;whiteSpace=wrap;html=1;size=14;verticalAlign=top;align=center;" parent="1" vertex="1">
          <mxGeometry x="-620" y="180" width="150" height="70" as="geometry" />
        </mxCell>
        <mxCell id="ut4KiRudENXIZB80_N2i-1" value="&amp;lt;&amp;lt;Interface&amp;gt;&amp;gt;&lt;br&gt;MessageParser" style="swimlane;fontStyle=0;childLayout=stackLayout;horizontal=1;startSize=30;horizontalStack=0;resizeParent=1;resizeParentMax=0;resizeLast=0;collapsible=1;marginBottom=0;whiteSpace=wrap;html=1;" vertex="1" parent="1">
          <mxGeometry x="60" y="540" width="210" height="120" as="geometry">
            <mxRectangle x="160" y="90" width="50" height="40" as="alternateBounds" />
          </mxGeometry>
        </mxCell>
        <mxCell id="ut4KiRudENXIZB80_N2i-2" value="+ String encode(Object message)" style="text;strokeColor=none;fillColor=none;align=left;verticalAlign=middle;spacingLeft=4;spacingRight=4;overflow=hidden;points=[[0,0.5],[1,0.5]];portConstraint=eastwest;rotatable=0;whiteSpace=wrap;html=1;" vertex="1" parent="ut4KiRudENXIZB80_N2i-1">
          <mxGeometry y="30" width="210" height="30" as="geometry" />
        </mxCell>
        <mxCell id="ut4KiRudENXIZB80_N2i-3" value="+ Object decode(String message)" style="text;strokeColor=none;fillColor=none;align=left;verticalAlign=middle;spacingLeft=4;spacingRight=4;overflow=hidden;points=[[0,0.5],[1,0.5]];portConstraint=eastwest;rotatable=0;whiteSpace=wrap;html=1;" vertex="1" parent="ut4KiRudENXIZB80_N2i-1">
          <mxGeometry y="60" width="210" height="30" as="geometry" />
        </mxCell>
        <mxCell id="ut4KiRudENXIZB80_N2i-4" value="+ void setFormat(String Format)" style="text;strokeColor=none;fillColor=none;align=left;verticalAlign=middle;spacingLeft=4;spacingRight=4;overflow=hidden;points=[[0,0.5],[1,0.5]];portConstraint=eastwest;rotatable=0;whiteSpace=wrap;html=1;" vertex="1" parent="ut4KiRudENXIZB80_N2i-1">
          <mxGeometry y="90" width="210" height="30" as="geometry" />
        </mxCell>
        <mxCell id="ut4KiRudENXIZB80_N2i-5" value="JSONParser" style="swimlane;fontStyle=0;childLayout=stackLayout;horizontal=1;startSize=30;horizontalStack=0;resizeParent=1;resizeParentMax=0;resizeLast=0;collapsible=1;marginBottom=0;whiteSpace=wrap;html=1;" vertex="1" parent="1">
          <mxGeometry x="-130" y="750" width="190" height="90" as="geometry" />
        </mxCell>
        <mxCell id="ut4KiRudENXIZB80_N2i-6" value="+ String API_enconde(Object message)" style="text;strokeColor=none;fillColor=none;align=left;verticalAlign=middle;spacingLeft=4;spacingRight=4;overflow=hidden;points=[[0,0.5],[1,0.5]];portConstraint=eastwest;rotatable=0;whiteSpace=wrap;html=1;" vertex="1" parent="ut4KiRudENXIZB80_N2i-5">
          <mxGeometry y="30" width="190" height="30" as="geometry" />
        </mxCell>
        <mxCell id="ut4KiRudENXIZB80_N2i-7" value="+ Object decode(String message)" style="text;strokeColor=none;fillColor=none;align=left;verticalAlign=middle;spacingLeft=4;spacingRight=4;overflow=hidden;points=[[0,0.5],[1,0.5]];portConstraint=eastwest;rotatable=0;whiteSpace=wrap;html=1;" vertex="1" parent="ut4KiRudENXIZB80_N2i-5">
          <mxGeometry y="60" width="190" height="30" as="geometry" />
        </mxCell>
        <mxCell id="ut4KiRudENXIZB80_N2i-8" style="edgeStyle=none;html=1;exitX=0.5;exitY=0;exitDx=0;exitDy=0;dashed=1;dashPattern=12 12;" edge="1" parent="1" source="ut4KiRudENXIZB80_N2i-9" target="ut4KiRudENXIZB80_N2i-4">
          <mxGeometry relative="1" as="geometry" />
        </mxCell>
        <mxCell id="ut4KiRudENXIZB80_N2i-9" value="BinaryParser" style="swimlane;fontStyle=0;childLayout=stackLayout;horizontal=1;startSize=30;horizontalStack=0;resizeParent=1;resizeParentMax=0;resizeLast=0;collapsible=1;marginBottom=0;whiteSpace=wrap;html=1;" vertex="1" parent="1">
          <mxGeometry x="270" y="750" width="230" height="100" as="geometry" />
        </mxCell>
        <mxCell id="ut4KiRudENXIZB80_N2i-10" value="+ Object decode(String message)&amp;nbsp;" style="text;strokeColor=none;fillColor=none;align=left;verticalAlign=middle;spacingLeft=4;spacingRight=4;overflow=hidden;points=[[0,0.5],[1,0.5]];portConstraint=eastwest;rotatable=0;whiteSpace=wrap;html=1;" vertex="1" parent="ut4KiRudENXIZB80_N2i-9">
          <mxGeometry y="30" width="230" height="30" as="geometry" />
        </mxCell>
        <mxCell id="ut4KiRudENXIZB80_N2i-11" value="+ boolean validateMessage(String message)" style="text;strokeColor=none;fillColor=none;align=left;verticalAlign=middle;spacingLeft=4;spacingRight=4;overflow=hidden;points=[[0,0.5],[1,0.5]];portConstraint=eastwest;rotatable=0;whiteSpace=wrap;html=1;" vertex="1" parent="ut4KiRudENXIZB80_N2i-9">
          <mxGeometry y="60" width="230" height="40" as="geometry" />
        </mxCell>
        <mxCell id="ut4KiRudENXIZB80_N2i-12" style="edgeStyle=none;html=1;exitX=0.5;exitY=0;exitDx=0;exitDy=0;entryX=0.275;entryY=0.987;entryDx=0;entryDy=0;entryPerimeter=0;dashed=1;dashPattern=12 12;" edge="1" parent="1" source="ut4KiRudENXIZB80_N2i-5" target="ut4KiRudENXIZB80_N2i-4">
          <mxGeometry relative="1" as="geometry" />
        </mxCell>
        <mxCell id="ut4KiRudENXIZB80_N2i-13" value="Validator" style="swimlane;fontStyle=0;childLayout=stackLayout;horizontal=1;startSize=20;horizontalStack=0;resizeParent=1;resizeParentMax=0;resizeLast=0;collapsible=1;marginBottom=0;whiteSpace=wrap;html=1;" vertex="1" parent="1">
          <mxGeometry x="30" y="920" width="270" height="50" as="geometry" />
        </mxCell>
        <mxCell id="ut4KiRudENXIZB80_N2i-14" value="+ boolean validateJSON(String messages) //Ensures all the JSON data format is correct" style="text;strokeColor=none;fillColor=none;align=left;verticalAlign=middle;spacingLeft=4;spacingRight=4;overflow=hidden;points=[[0,0.5],[1,0.5]];portConstraint=eastwest;rotatable=0;whiteSpace=wrap;html=1;" vertex="1" parent="ut4KiRudENXIZB80_N2i-13">
          <mxGeometry y="20" width="270" height="30" as="geometry" />
        </mxCell>
        <mxCell id="ut4KiRudENXIZB80_N2i-15" style="edgeStyle=none;html=1;entryX=0.33;entryY=-0.06;entryDx=0;entryDy=0;entryPerimeter=0;dashed=1;dashPattern=12 12;" edge="1" parent="1" source="ut4KiRudENXIZB80_N2i-5" target="ut4KiRudENXIZB80_N2i-13">
          <mxGeometry relative="1" as="geometry" />
        </mxCell>
        <mxCell id="ut4KiRudENXIZB80_N2i-16" value="Uses" style="edgeLabel;html=1;align=center;verticalAlign=middle;resizable=0;points=[];" vertex="1" connectable="0" parent="ut4KiRudENXIZB80_N2i-15">
          <mxGeometry x="-0.0515" y="-3" relative="1" as="geometry">
            <mxPoint as="offset" />
          </mxGeometry>
        </mxCell>
        <mxCell id="ut4KiRudENXIZB80_N2i-17" style="edgeStyle=none;html=1;entryX=0.641;entryY=0;entryDx=0;entryDy=0;entryPerimeter=0;dashed=1;dashPattern=12 12;" edge="1" parent="1" source="ut4KiRudENXIZB80_N2i-9" target="ut4KiRudENXIZB80_N2i-13">
          <mxGeometry relative="1" as="geometry" />
        </mxCell>
        <mxCell id="ut4KiRudENXIZB80_N2i-18" value="Uses" style="edgeLabel;html=1;align=center;verticalAlign=middle;resizable=0;points=[];" vertex="1" connectable="0" parent="ut4KiRudENXIZB80_N2i-17">
          <mxGeometry x="-0.029" y="2" relative="1" as="geometry">
            <mxPoint as="offset" />
          </mxGeometry>
        </mxCell>
        <mxCell id="ut4KiRudENXIZB80_N2i-19" value="Use" style="endArrow=open;endSize=12;dashed=1;html=1;rounded=0;fontSize=12;curved=1;exitX=0.25;exitY=1.094;exitDx=0;exitDy=0;entryX=1;entryY=0.5;entryDx=0;entryDy=0;exitPerimeter=0;" edge="1" parent="1" source="ut4KiRudENXIZB80_N2i-7" target="Xb6AXkKjqVTM_AZDYaId-21">
          <mxGeometry x="-0.0284" y="45" width="160" relative="1" as="geometry">
            <mxPoint x="-90" y="670" as="sourcePoint" />
            <mxPoint x="-70" y="590" as="targetPoint" />
            <Array as="points">
              <mxPoint y="1110" />
              <mxPoint x="740" y="930" />
            </Array>
            <mxPoint as="offset" />
          </mxGeometry>
        </mxCell>
        <mxCell id="ut4KiRudENXIZB80_N2i-20" value="Use" style="endArrow=open;endSize=12;dashed=1;html=1;rounded=0;fontSize=12;curved=1;exitX=0.75;exitY=0;exitDx=0;exitDy=0;entryX=0.85;entryY=0.986;entryDx=0;entryDy=0;entryPerimeter=0;" edge="1" parent="1" source="ut4KiRudENXIZB80_N2i-9" target="Xb6AXkKjqVTM_AZDYaId-21">
          <mxGeometry width="160" relative="1" as="geometry">
            <mxPoint x="20" y="590" as="sourcePoint" />
            <mxPoint x="180" y="590" as="targetPoint" />
          </mxGeometry>
        </mxCell>
        <mxCell id="ut4KiRudENXIZB80_N2i-21" value="PlayerHandler" style="swimlane;fontStyle=1;align=center;verticalAlign=top;childLayout=stackLayout;horizontal=1;startSize=26;horizontalStack=0;resizeParent=1;resizeParentMax=0;resizeLast=0;collapsible=1;marginBottom=0;whiteSpace=wrap;html=1;" vertex="1" parent="1">
          <mxGeometry x="-390" y="390" width="280" height="130" as="geometry" />
        </mxCell>
        <mxCell id="ut4KiRudENXIZB80_N2i-22" value="- socket: int" style="text;strokeColor=none;fillColor=none;align=left;verticalAlign=top;spacingLeft=4;spacingRight=4;overflow=hidden;rotatable=0;points=[[0,0.5],[1,0.5]];portConstraint=eastwest;whiteSpace=wrap;html=1;" vertex="1" parent="ut4KiRudENXIZB80_N2i-21">
          <mxGeometry y="26" width="280" height="26" as="geometry" />
        </mxCell>
        <mxCell id="ut4KiRudENXIZB80_N2i-23" value="" style="line;strokeWidth=1;fillColor=none;align=left;verticalAlign=middle;spacingTop=-1;spacingLeft=3;spacingRight=3;rotatable=0;labelPosition=right;points=[];portConstraint=eastwest;strokeColor=inherit;" vertex="1" parent="ut4KiRudENXIZB80_N2i-21">
          <mxGeometry y="52" width="280" height="8" as="geometry" />
        </mxCell>
        <mxCell id="ut4KiRudENXIZB80_N2i-24" value="&lt;div&gt;+ sendMessageToClient():&lt;/div&gt;&lt;div&gt;+ sendMessageToGameSynchronizer():&lt;/div&gt;&lt;div&gt;- encodeMessage():&lt;/div&gt;&lt;div&gt;- decodeMessage():&lt;/div&gt;" style="text;strokeColor=none;fillColor=none;align=left;verticalAlign=top;spacingLeft=4;spacingRight=4;overflow=hidden;rotatable=0;points=[[0,0.5],[1,0.5]];portConstraint=eastwest;whiteSpace=wrap;html=1;" vertex="1" parent="ut4KiRudENXIZB80_N2i-21">
          <mxGeometry y="60" width="280" height="70" as="geometry" />
        </mxCell>
        <mxCell id="ut4KiRudENXIZB80_N2i-25" value="Use" style="endArrow=open;endSize=12;dashed=1;html=1;rounded=0;fontSize=12;curved=1;exitX=1;exitY=0.5;exitDx=0;exitDy=0;entryX=0;entryY=0.5;entryDx=0;entryDy=0;" edge="1" parent="1" source="ut4KiRudENXIZB80_N2i-22" target="ut4KiRudENXIZB80_N2i-3">
          <mxGeometry width="160" relative="1" as="geometry">
            <mxPoint x="-210" y="590" as="sourcePoint" />
            <mxPoint x="-50" y="590" as="targetPoint" />
          </mxGeometry>
        </mxCell>
        <mxCell id="ut4KiRudENXIZB80_N2i-26" value="Use" style="endArrow=open;endSize=12;dashed=1;html=1;rounded=0;fontSize=12;curved=1;exitX=0.499;exitY=1.018;exitDx=0;exitDy=0;exitPerimeter=0;entryX=0.5;entryY=0;entryDx=0;entryDy=0;" edge="1" parent="1" source="Xb6AXkKjqVTM_AZDYaId-17" target="Xb6AXkKjqVTM_AZDYaId-18">
          <mxGeometry width="160" relative="1" as="geometry">
            <mxPoint x="80" y="320" as="sourcePoint" />
            <mxPoint x="240" y="320" as="targetPoint" />
          </mxGeometry>
        </mxCell>
        <mxCell id="ut4KiRudENXIZB80_N2i-28" value="" style="endArrow=open;endFill=1;endSize=12;html=1;rounded=0;fontSize=12;curved=1;exitX=0.5;exitY=1;exitDx=0;exitDy=0;entryX=0.5;entryY=0;entryDx=0;entryDy=0;" edge="1" parent="1" source="Xb6AXkKjqVTM_AZDYaId-1" target="ut4KiRudENXIZB80_N2i-21">
          <mxGeometry width="160" relative="1" as="geometry">
            <mxPoint x="-220" y="364.33" as="sourcePoint" />
            <mxPoint x="-60" y="364.33" as="targetPoint" />
          </mxGeometry>
        </mxCell>
        <mxCell id="ut4KiRudENXIZB80_N2i-30" value="" style="endArrow=classic;startArrow=classic;html=1;rounded=0;fontSize=12;startSize=8;endSize=8;curved=1;entryX=0;entryY=0.5;entryDx=0;entryDy=0;exitX=1;exitY=0.5;exitDx=0;exitDy=0;" edge="1" parent="1" source="Xb6AXkKjqVTM_AZDYaId-1" target="Xb6AXkKjqVTM_AZDYaId-15">
          <mxGeometry width="50" height="50" relative="1" as="geometry">
            <mxPoint x="-230" y="390" as="sourcePoint" />
            <mxPoint x="-180" y="340" as="targetPoint" />
          </mxGeometry>
        </mxCell>
        <mxCell id="ut4KiRudENXIZB80_N2i-31" value="" style="endArrow=classic;startArrow=classic;html=1;rounded=0;fontSize=12;startSize=8;endSize=8;curved=1;entryX=0.5;entryY=0;entryDx=0;entryDy=0;exitX=0.497;exitY=1;exitDx=0;exitDy=0;exitPerimeter=0;" edge="1" parent="1" source="Xb6AXkKjqVTM_AZDYaId-13" target="Xb6AXkKjqVTM_AZDYaId-6">
          <mxGeometry width="50" height="50" relative="1" as="geometry">
            <mxPoint x="-500" y="840" as="sourcePoint" />
            <mxPoint x="-450" y="790" as="targetPoint" />
          </mxGeometry>
        </mxCell>
        <mxCell id="ut4KiRudENXIZB80_N2i-32" value="" style="endArrow=classic;startArrow=classic;html=1;rounded=0;fontSize=12;startSize=8;endSize=8;curved=1;exitX=0.5;exitY=0;exitDx=0;exitDy=0;entryX=0;entryY=0.5;entryDx=0;entryDy=0;" edge="1" parent="1" source="Xb6AXkKjqVTM_AZDYaId-10" target="ut4KiRudENXIZB80_N2i-22">
          <mxGeometry width="50" height="50" relative="1" as="geometry">
            <mxPoint x="-470" y="610" as="sourcePoint" />
            <mxPoint x="-420" y="560" as="targetPoint" />
          </mxGeometry>
        </mxCell>
        <mxCell id="ut4KiRudENXIZB80_N2i-33" value="" style="endArrow=classic;startArrow=classic;html=1;rounded=0;fontSize=12;startSize=8;endSize=8;curved=1;entryX=0.498;entryY=0.989;entryDx=0;entryDy=0;exitX=0.5;exitY=0;exitDx=0;exitDy=0;entryPerimeter=0;" edge="1" parent="1" source="Xb6AXkKjqVTM_AZDYaId-1" target="ut4KiRudENXIZB80_N2i-37">
          <mxGeometry width="50" height="50" relative="1" as="geometry">
            <mxPoint x="-330" y="470" as="sourcePoint" />
            <mxPoint x="-251.25" y="190" as="targetPoint" />
          </mxGeometry>
        </mxCell>
        <mxCell id="ut4KiRudENXIZB80_N2i-34" value="&lt;div&gt;ServerController&lt;/div&gt;" style="swimlane;fontStyle=1;align=center;verticalAlign=top;childLayout=stackLayout;horizontal=1;startSize=26;horizontalStack=0;resizeParent=1;resizeParentMax=0;resizeLast=0;collapsible=1;marginBottom=0;whiteSpace=wrap;html=1;" vertex="1" parent="1">
          <mxGeometry x="-330" y="100" width="160" height="86" as="geometry" />
        </mxCell>
        <mxCell id="ut4KiRudENXIZB80_N2i-35" value="+ field: type" style="text;strokeColor=none;fillColor=none;align=left;verticalAlign=top;spacingLeft=4;spacingRight=4;overflow=hidden;rotatable=0;points=[[0,0.5],[1,0.5]];portConstraint=eastwest;whiteSpace=wrap;html=1;" vertex="1" parent="ut4KiRudENXIZB80_N2i-34">
          <mxGeometry y="26" width="160" height="26" as="geometry" />
        </mxCell>
        <mxCell id="ut4KiRudENXIZB80_N2i-36" value="" style="line;strokeWidth=1;fillColor=none;align=left;verticalAlign=middle;spacingTop=-1;spacingLeft=3;spacingRight=3;rotatable=0;labelPosition=right;points=[];portConstraint=eastwest;strokeColor=inherit;" vertex="1" parent="ut4KiRudENXIZB80_N2i-34">
          <mxGeometry y="52" width="160" height="8" as="geometry" />
        </mxCell>
        <mxCell id="ut4KiRudENXIZB80_N2i-37" value="+ method(type): type" style="text;strokeColor=none;fillColor=none;align=left;verticalAlign=top;spacingLeft=4;spacingRight=4;overflow=hidden;rotatable=0;points=[[0,0.5],[1,0.5]];portConstraint=eastwest;whiteSpace=wrap;html=1;" vertex="1" parent="ut4KiRudENXIZB80_N2i-34">
          <mxGeometry y="60" width="160" height="26" as="geometry" />
        </mxCell>
      </root>
    </mxGraphModel>
  </diagram>
</mxfile>
